<svg height="512pt" viewBox="-24 0 511 512" width="512pt" xmlns="http://www.w3.org/2000/svg"><path d="m427.195312 41.5-7.882812 7.882812h-101.832031v4.90625h-80.972657v7.4375h-37.011718v-9.273437h-15v62.382813h15v-9.273438h37.011718v7.4375h80.972657v4.90625h101.832031l7.882812 7.882812h37.300782v-84.289062zm-227.699218 49.0625v-13.835938h37.011718v13.835938zm52.011718 7.4375v-28.710938h65.972657v28.710938zm80.972657-33.617188h85.011719v38.523438h-85.011719zm117.015625 46.40625h-16.085938l-.917968-.917968v-52.453125l.917968-.917969h16.085938zm0 0"/><path d="m235.910156 180.03125h-71.800781v316.96875h-24.640625l-6.617188-6.617188v-165.371093h-39.835937v165.371093l-6.617187 6.617188h-24.640626v-309.46875h-15v135.84375h-18.953124l-12.304688-12.308594v-143.496094l18.796875-18.796874h25.410156l42.136719 96.628906h22.179688l42.136718-96.628906h56.800782l17.972656-17.96875-10.605469-10.609376-13.578125 13.578126h-42.054688v-72.015626c-.003906-34.054687-27.707031-61.757812-61.761718-61.757812-34.054688 0-61.757813 27.703125-61.757813 61.757812v48.550782l23.464844 23.464844h-46.558594l-27.582031 27.585937v155.921875l21.09375 21.09375h25.164062v173.625h45.855469l15.402344-15.402344v-156.585937h9.835937v156.585937l15.40625 15.402344h45.851563v-316.96875h63.011719l63.347656-63.34375-10.609375-10.605469zm-124.242187 50.371094-8.734375-20.03125 5.910156-61.597656h8.179688l5.910156 61.597656-8.734375 20.03125zm23.617187-48.355469-3.191406-33.273437h17.703125zm-69.109375-120.289063c0-25.78125 20.976563-46.757812 46.757813-46.757812 25.785156 0 46.757812 20.976562 46.757812 46.757812v72.015626h-63.835937l-29.679688-29.675782zm27.597657 87.015626-3.191407 33.273437-14.507812-33.273437zm0 0"/><path d="m148.339844 120.8125h-15v-52.894531h15zm-15.191406-61.859375c-.5-3.621094-1.980469-7.058594-4.289063-9.933594l11.703125-9.382812c4 4.988281 6.578125 10.960937 7.445312 17.269531zm-9.78125-14.726563c-3.144532-1.878906-6.753907-2.875-10.433594-2.875v-15c6.390625 0 12.664062 1.730469 18.132812 5.003907zm0 0"/><path d="m411.078125 85.382812h-22.183594v-15h22.183594zm-32.183594 0h-15v-15h15zm-25 0h-15v-15h15zm0 0"/><path d="m157.109375 347.230469h-15v-65.894531h15zm0-75.898438h-15v-15h15zm0-25h-15v-15h15zm0 0"/></svg>