<svg id="Layer_1" enable-background="new 0 0 512 512" height="512" viewBox="0 0 512 512" width="512" xmlns="http://www.w3.org/2000/svg"><g><path d="m459.469 420.53c-47.484-94.973-128.014-256.028-140.269-280.538v-109.992h1.066c8.284 0 15-6.716 15-15s-6.716-15-15-15h-128.533c-8.284 0-15 6.716-15 15s6.716 15 15 15h1.066v109.992c-12.255 24.51-92.785 185.564-140.269 280.538-9.868 19.736-8.836 42.723 2.764 61.497 11.608 18.768 31.705 29.973 53.76 29.973h293.892c22.055 0 42.152-11.205 53.763-29.978 11.596-18.769 12.628-41.756 2.76-61.492zm-28.279 45.717c-6.1 9.864-16.659 15.753-28.244 15.753h-293.892c-11.585 0-22.144-5.889-28.241-15.748-6.092-9.859-6.634-21.937-1.449-32.306 51.494-102.995 141.853-283.705 141.853-283.705 1.042-2.083 1.583-4.38 1.583-6.708v-113.533h66.4v113.533c0 2.329.542 4.625 1.583 6.708 0 0 90.358 180.709 141.853 283.705 5.185 10.37 4.643 22.447-1.446 32.301z"/><path d="m272.067 224.933h-32.134c-8.284 0-15 6.716-15 15s6.716 15 15 15h17.134v34.267h-17.134c-8.284 0-15 6.716-15 15s6.716 15 15 15h17.134v34.267h-17.134c-8.284 0-15 6.716-15 15s6.716 15 15 15h17.134v34.267h-17.134c-8.284 0-15 6.716-15 15s6.716 15 15 15h32.134c8.284 0 15-6.716 15-15v-192.8c0-8.285-6.716-15.001-15-15.001z"/></g></svg>