<svg xmlns="http://www.w3.org/2000/svg" width="111" height="111" viewBox="0 0 111 111">
  <g id="Grupo_79" data-name="Grupo 79" transform="translate(-167 -138)">
    <g id="Elipse_13" data-name="Elipse 13" transform="translate(167 138)" fill="none" stroke="#fff" stroke-width="5">
      <circle cx="55.5" cy="55.5" r="55.5" stroke="none"/>
      <circle cx="55.5" cy="55.5" r="53" fill="none"/>
    </g>
    <g id="Grupo_320" data-name="Grupo 320" transform="translate(187.596 171.339)">
      <path id="Sustracción_6" data-name="Sustracción 6" d="M19.553,31.585H4a4,4,0,0,1-4-4V4A4,4,0,0,1,4,0H56.162a4,4,0,0,1,4,4V19.852A16.562,16.562,0,0,0,37.33,28.306L32.2,23.178a3,3,0,0,0-4.243,0l-8.406,8.407h0Z" transform="translate(0 0)" fill="none" stroke="#fff" stroke-width="2"/>
      <circle id="Elipse_114" data-name="Elipse 114" cx="6.768" cy="6.768" r="6.768" transform="translate(7.52 9.024)" fill="none" stroke="#fff" stroke-width="2"/>
      <path id="Sustracción_5" data-name="Sustracción 5" d="M3.293,12.577h0a6.765,6.765,0,1,1,9.858-3.547,16.392,16.392,0,0,0-9.856,3.547Z" transform="translate(39.105 9.024)" fill="none" stroke="#fff" stroke-width="2"/>
      <circle id="Elipse_116" data-name="Elipse 116" cx="16.544" cy="16.544" r="16.544" transform="translate(36.849 18.801)" fill="none" stroke="#fff" stroke-width="2"/>
      <g id="Polígono_15" data-name="Polígono 15" transform="translate(66.178 24.065) rotate(90)" fill="#fff">
        <path d="M 19.96353149414063 18.55256271362305 L 2.59711217880249 18.55256271362305 C 2.336621999740601 18.55256271362305 2.207542181015015 18.37778282165527 2.16414213180542 18.30263328552246 C 2.120742082595825 18.22748374938965 2.033852100372314 18.02834320068359 2.164021968841553 17.80270385742188 L 10.8472318649292 2.751803398132324 C 10.97748184204102 2.526033401489258 11.19349193572998 2.501663446426392 11.28032207489014 2.501663446426392 C 11.36715221405029 2.501663446426392 11.58316230773926 2.526033401489258 11.71341228485107 2.751803398132324 L 20.39662170410156 17.80269241333008 C 20.52680206298828 18.02833366394043 20.43990135192871 18.22748374938965 20.3965015411377 18.30263328552246 C 20.35310173034668 18.37778282165527 20.22403144836426 18.55256271362305 19.96353149414063 18.55256271362305 Z" stroke="none"/>
        <path d="M 11.2803201675415 4.002225875854492 L 3.462808609008789 17.55256271362305 L 19.09782981872559 17.55256271362305 L 11.2803201675415 4.002225875854492 M 11.2803258895874 1.501663208007813 C 11.78565502166748 1.501663208007813 12.29098224639893 1.751802444458008 12.57960224151611 2.252082824707031 L 21.2628116607666 17.3029727935791 C 21.83973121643066 18.3029727935791 21.11801147460938 19.55256271362305 19.96353149414063 19.55256271362305 L 2.597112655639648 19.55256271362305 C 1.442632675170898 19.55256271362305 0.7209129333496094 18.3029727935791 1.297832489013672 17.3029727935791 L 9.98104190826416 2.252082824707031 C 10.26966667175293 1.751802444458008 10.77499675750732 1.501663208007813 11.2803258895874 1.501663208007813 Z" stroke="none" fill="#fff"/>
      </g>
    </g>
  </g>
</svg>
