<?xml version="1.0"?>
<svg xmlns="http://www.w3.org/2000/svg" viewBox="0 0 64 64" width="512" height="512"><g id="outline"><rect x="47" y="42" width="2" height="2"/><path d="M33,49H20a1,1,0,0,0-1,1v3H14a1,1,0,0,0-.961,1.274l2,7A1,1,0,0,0,16,62H45a4.054,4.054,0,0,0,4-4V48.91a5.993,5.993,0,0,0,0-11.82V35a19.98,19.98,0,0,0-6.293-14.707,11.377,11.377,0,0,0-6.153-3.153l-4.847-4.847A1,1,0,0,0,31,12H25.414L15.707,2.293a1,1,0,0,0-1.414,0l-4,4a1,1,0,0,0,0,1.414L19.586,17l-.3.3a1.013,1.013,0,0,0-.191.284c-.014.03-.1.4-.1.42V36a2.968,2.968,0,0,0,3,3h2a2.968,2.968,0,0,0,3-3V31.639l1.039,3.635A1,1,0,0,0,29,36h6a1,1,0,0,0,.961-1.274L34.326,29H35a1,1,0,0,0,1-1V23.171A2.99,2.99,0,0,1,38,26V41H18a1,1,0,0,0-1,1v4a1,1,0,0,0,1,1H38v6H34V50A1,1,0,0,0,33,49ZM21,51H32v2H21Zm31-8a4,4,0,1,1-4-4A4,4,0,0,1,52,43ZM30.586,14l3,3H22.414l3-3ZM12.414,7,15,4.414,16.586,6,14,8.586Zm3,3L18,7.414,23.586,13,21,15.586ZM25,36a.957.957,0,0,1-1,1H22a.957.957,0,0,1-1-1V33h4Zm0-5H21V29h4Zm4.754,3-1.428-5h3.92l1.428,5ZM34,27H21V25H34Zm1-6a1,1,0,0,0-1,1v1H21V19H35a9.275,9.275,0,0,1,6.293,2.707A17.841,17.841,0,0,1,47,35v2.09a5.993,5.993,0,0,0,0,11.82V53H40V26a4.995,4.995,0,0,0-5-5ZM19,45V43H38v2ZM47,55v3a2.079,2.079,0,0,1-2,2H16.754l-1.428-5Z"/><rect x="42" y="29" width="2" height="6"/></g></svg>
